<?xml version="1.0" standalone="no"?>
<!DOCTYPE svg PUBLIC "-//W3C//DTD SVG 20010904//EN"
 "http://www.w3.org/TR/2001/REC-SVG-20010904/DTD/svg10.dtd">
<svg version="1.0" xmlns="http://www.w3.org/2000/svg"
 width="512.000000pt" height="512.000000pt" viewBox="0 0 512.000000 512.000000"
 preserveAspectRatio="xMidYMid meet">
<metadata>
Created by potrace 1.11, written by Peter Selinger 2001-2013
</metadata>
<g transform="translate(0.000000,512.000000) scale(0.100000,-0.100000)"
fill="#000000" stroke="none">
<path d="M2378 5115 c-2 -1 -34 -5 -73 -9 -38 -3 -97 -10 -130 -16 -33 -6 -76
-13 -95 -16 -106 -17 -413 -105 -434 -125 -6 -5 -16 -9 -24 -9 -20 0 -246
-108 -342 -164 -620 -359 -1073 -978 -1223 -1671 -54 -248 -71 -590 -41 -841
66 -564 313 -1083 713 -1497 344 -357 861 -633 1349 -722 181 -33 262 -40 492
-40 184 0 274 5 365 20 131 22 167 29 220 42 499 127 905 358 1245 709 178
184 316 378 445 630 137 265 233 589 262 882 13 124 9 507 -6 607 -72 488
-253 908 -554 1279 -101 124 -258 282 -364 366 -10 8 -39 31 -63 51 -75 61
-269 183 -380 241 -244 126 -502 212 -762 252 -51 8 -111 18 -133 21 -39 7
-460 16 -467 10z"/>
</g>
</svg>
