<svg height="512" viewBox="0 0 128 128" width="512" xmlns="http://www.w3.org/2000/svg"><g><path d="m120.863 38.135-2.373-1.892a3.351 3.351 0 0 1 -1.079-3.7l.821-2.4a6.844 6.844 0 0 0 -7.572-8.969 3.345 3.345 0 0 1 -3.836-3.836 6.844 6.844 0 0 0 -8.969-7.572l-2.4.821a3.35 3.35 0 0 1 -3.7-1.079l-1.89-2.371a6.843 6.843 0 0 0 -11.918 2.342l-1.717 4.068-62.683 62.684-4.069 1.716a6.843 6.843 0 0 0 -2.341 11.918l2.372 1.892a3.351 3.351 0 0 1 1.08 3.7l-.82 2.4a6.843 6.843 0 0 0 7.571 8.969 3.343 3.343 0 0 1 3.835 3.836 6.844 6.844 0 0 0 8.969 7.572l2.4-.821a3.347 3.347 0 0 1 3.7 1.079l1.892 2.373a6.806 6.806 0 0 0 5.336 2.58 6.92 6.92 0 0 0 1.4-.143 6.812 6.812 0 0 0 5.2-4.813l1.59-4.2 62.634-62.635 4.2-1.588a6.843 6.843 0 0 0 2.376-11.928zm-43.194-21.076c5.616 6.423 7.7 15.184 6.53 24.35a1.726 1.726 0 0 0 -.084.655c-1.381 9.536-6.282 19.458-14.437 27.614-16.2 16.2-39.373 19.57-52.619 7.991zm20.843 23.45a38.233 38.233 0 0 0 -10.67-.531 38.581 38.581 0 0 0 -.528-10.6 7.9 7.9 0 0 1 11.2 11.131zm-58 58a7.9 7.9 0 0 1 -11.129-11.2 37.436 37.436 0 0 0 7.159.691c1.135 0 2.283-.064 3.435-.16a38.337 38.337 0 0 0 .532 10.671zm6.2 18.968a3.343 3.343 0 0 1 -5.839 1.2l-1.892-2.373a6.857 6.857 0 0 0 -7.564-2.21l-2.4.821a3.343 3.343 0 0 1 -4.382-3.7 6.843 6.843 0 0 0 -7.851-7.852 3.342 3.342 0 0 1 -3.7-4.382l.82-2.4a6.858 6.858 0 0 0 -2.21-7.565l-2.376-1.887a3.343 3.343 0 0 1 1.2-5.839 1.705 1.705 0 0 0 .218-.076l3.431-1.448a30.253 30.253 0 0 0 11.488 6.6 11.4 11.4 0 0 0 15.8 15.852 30.349 30.349 0 0 0 6.666 11.5l-1.363 3.6c-.016.055-.033.108-.048.161zm3.479-6.679a27.342 27.342 0 0 1 -6.038-12.014c-.007-.04-.019-.079-.029-.119a34.775 34.775 0 0 1 -.58-11.266 53.549 53.549 0 0 0 28.61-15.249 53.538 53.538 0 0 0 15.246-28.608 34.75 34.75 0 0 1 11.257.578c.045.011.089.024.134.032a27.347 27.347 0 0 1 12.009 6.036zm69.683-66.64a3.283 3.283 0 0 1 -2.393 2.55c-.053.015-.106.032-.158.052l-3.6 1.363a30.346 30.346 0 0 0 -11.5-6.667 11.4 11.4 0 0 0 -15.855-15.8 30.242 30.242 0 0 0 -6.6-11.479l1.45-3.436a1.667 1.667 0 0 0 .076-.219 3.343 3.343 0 0 1 5.839-1.2l1.892 2.373a6.856 6.856 0 0 0 7.565 2.21l2.4-.821a3.342 3.342 0 0 1 4.381 3.7 6.844 6.844 0 0 0 7.852 7.852 3.342 3.342 0 0 1 3.7 4.381l-.821 2.4a6.857 6.857 0 0 0 2.21 7.565l2.373 1.892a3.285 3.285 0 0 1 1.187 3.286z"/><path d="m71.448 50.451a1.778 1.778 0 0 0 -1.835 1.661l-.149 2.988a1.751 1.751 0 0 0 1.661 1.835h.088a1.751 1.751 0 0 0 1.747-1.664l.149-2.988a1.751 1.751 0 0 0 -1.661-1.832z"/><path d="m69.858 38.067a1.75 1.75 0 0 0 2.392-.637l1.869-3.23a1.75 1.75 0 0 0 -3.029-1.754l-1.869 3.23a1.749 1.749 0 0 0 .637 2.391z"/><path d="m51.7 73.3a1.749 1.749 0 0 0 .8-.2l3.378-1.754a1.75 1.75 0 1 0 -1.613-3.106l-3.375 1.754a1.75 1.75 0 0 0 .808 3.3z"/><path d="m38.335 73.2-.163-3.768a1.775 1.775 0 0 0 -1.824-1.672 1.75 1.75 0 0 0 -1.673 1.824l.163 3.769a1.75 1.75 0 0 0 1.747 1.673h.078a1.75 1.75 0 0 0 1.672-1.826z"/><path d="m53.283 56.4 2.72.917a1.732 1.732 0 0 0 .559.092 1.75 1.75 0 0 0 .559-3.409l-2.72-.917a1.75 1.75 0 0 0 -1.118 3.317z"/><path d="m96.2 53.842a1.75 1.75 0 0 0 -1.748-1.7h-.052a1.748 1.748 0 0 0 -1.7 1.8l.071 2.63a1.75 1.75 0 0 0 1.748 1.7h.049a1.749 1.749 0 0 0 1.7-1.8z"/><path d="m58.053 93.146-2.842-1.363a1.75 1.75 0 1 0 -1.511 3.156l2.84 1.361a1.75 1.75 0 1 0 1.513-3.156z"/><path d="m76.985 73.819-2.211.861a1.75 1.75 0 1 0 1.27 3.261l2.211-.86a1.75 1.75 0 1 0 -1.27-3.262z"/></g></svg>