<?xml version="1.0" encoding="iso-8859-1"?>
<!-- Generator: Adobe Illustrator 19.0.0, SVG Export Plug-In . SVG Version: 6.00 Build 0)  -->
<svg version="1.1" id="Capa_1" xmlns="http://www.w3.org/2000/svg" xmlns:xlink="http://www.w3.org/1999/xlink" x="0px" y="0px"
	 viewBox="0 0 512 512" style="enable-background:new 0 0 512 512;" xml:space="preserve">
<g>
	<g>
		<path d="M416.16,212.46c0.3-3.11,0.46-6.27,0.46-9.46c0-42.26-27.27-78.28-65.14-91.37c0.77-4.88,1.17-9.89,1.17-14.98
			C352.65,43.36,309.29,0,256,0c-53.29,0-96.65,43.36-96.65,96.65c0,5.17,0.41,10.26,1.2,15.21
			c-37.51,13.28-64.46,49.13-64.46,91.14c0,3.19,0.16,6.35,0.46,9.46H59.21v15C59.21,328,140.63,409.87,241,410.61V482h-38.631v30
			h107.263v-30H271v-71.39c100.37-0.74,181.79-82.61,181.79-183.15v-15H416.16z M342.27,140.19c25.82,9.19,44.35,33.88,44.35,62.81
			c0,3.21-0.23,6.37-0.68,9.46h-97.02c0.3-3.11,0.46-6.27,0.46-9.46c0-5.18-0.41-10.26-1.2-15.22c-1.6-10.11-4.79-19.71-9.28-28.53
			h-0.01c-1.02-2.02-2.12-4-3.29-5.94c9.15-8.19,20.57-13.88,33.19-16.02c3.63-0.62,7.37-0.94,11.18-0.94
			C327.79,136.35,335.3,137.7,342.27,140.19z M256,30c36.75,0,66.65,29.9,66.65,66.65c0,3.3-0.24,6.55-0.71,9.72
			c-0.65-0.01-1.31-0.02-1.97-0.02c-24.34,0-46.61,9.05-63.62,23.96c-17.01-14.91-39.28-23.96-63.62-23.96
			c-0.89,0-1.78,0.01-2.66,0.04c-0.48-3.18-0.72-6.43-0.72-9.74C189.35,59.9,219.25,30,256,30z M169.84,140.4
			c7.14-2.62,14.85-4.05,22.89-4.05c3.53,0,7,0.28,10.38,0.81c12.93,2.03,24.65,7.79,33.99,16.15c3.12,2.79,5.98,5.86,8.52,9.18
			c4.71,6.13,8.37,13.09,10.73,20.62c1.03,3.28,1.81,6.67,2.32,10.15c0.47,3.18,0.71,6.43,0.71,9.74c0,3.21-0.23,6.37-0.68,9.46
			H126.77c-0.45-3.09-0.68-6.25-0.68-9.46C126.09,174.29,144.33,149.76,169.84,140.4z M269.63,380.62h-27.26
			c-58.37,0-109.21-32.82-135.06-80.97h297.38C378.84,347.8,328,380.62,269.63,380.62z M416.88,269.65H95.12
			c-2.52-8.77-4.27-17.86-5.18-27.19h332.12C421.15,251.79,419.4,260.88,416.88,269.65z"/>
	</g>
</g>
<g>
</g>
<g>
</g>
<g>
</g>
<g>
</g>
<g>
</g>
<g>
</g>
<g>
</g>
<g>
</g>
<g>
</g>
<g>
</g>
<g>
</g>
<g>
</g>
<g>
</g>
<g>
</g>
<g>
</g>
</svg>
