<svg id="Capa_1" enable-background="new 0 0 511.986 511.986" height="512" viewBox="0 0 511.986 511.986" width="512" xmlns="http://www.w3.org/2000/svg"><g><g><path d="m490.201 175.927c-1.711-5.351-5.729-9.51-11.026-11.413-4.485-1.611-8.991-3.154-13.506-4.665.195-1.07.368-2.161.517-3.264 3.734-27.567-9.257-55.587-33.899-73.125-4.638-3.305-10.435-4.393-15.87-3.072-16.971-28.123-47.323-45.398-80.405-45.398-18.486 0-36.221 5.313-51.538 15.398l-8.715-8.714c-2.929-2.929-7.678-2.929-10.606 0-2.929 2.929-2.929 7.678 0 10.606l46.924 46.923c-5.18 1.621-9.498 5.362-11.836 10.388-1.047 2.258-1.989 4.551-2.838 6.867-7.477-9.379-16.583-17.783-26.843-24.693-4.883-3.271-11.117-4.108-16.671-2.239-22.082 7.414-40.834 20.462-54.229 37.733-.231.298-.427.611-.607.93-4.13.356-8.258.742-12.384 1.176-5.471-18.243-17.98-32.949-34.093-41.464l72.07-72.07c1.119-1.119 2.94-1.119 4.06 0l12.406 12.407c2.928 2.929 7.677 2.929 10.606 0s2.929-7.677 0-10.606l-12.408-12.406c-6.968-6.968-18.305-6.968-25.272 0l-43.968 43.968c-9.336-12.767-23.741-21.899-40.528-25.459-5.855-1.242-11.911.512-16.197 4.689-16.015 15.606-23.336 36.559-20.026 56.746-25.166 10.493-42.905 35.344-42.905 64.268 0 2.953.191 5.921.565 8.856-6.099 1.99-12.16 4.061-18.168 6.22-5.296 1.903-9.315 6.063-11.026 11.414-1.703 5.328-.85 11.02 2.342 15.616l217.188 312.764c3.338 4.808 8.825 7.678 14.678 7.678s11.34-2.87 14.678-7.678l63.374-91.262c2.363-3.402 1.52-8.076-1.882-10.438-3.403-2.363-8.076-1.521-10.438 1.882l-63.374 91.262c-.745 1.073-1.797 1.233-2.357 1.233s-1.613-.161-2.358-1.233l-217.189-312.764c-.698-1.005-.535-1.993-.375-2.492.164-.513.617-1.437 1.81-1.865 24.29-8.726 49.418-16.065 74.685-21.814 4.039-.919 6.568-4.938 5.649-8.977s-4.937-6.569-8.977-5.649c-14.641 3.331-29.231 7.202-43.651 11.539-.112-1.429-.174-2.863-.174-4.292 0-30.106 24.494-54.6 54.6-54.6 23.339 0 43.811 14.697 51.456 36.313-9.519 1.224-19.021 2.638-28.497 4.28-4.082.708-6.817 4.589-6.11 8.67s4.592 6.815 8.67 6.11c110.099-19.076 223.717-9.248 328.57 28.42 1.193.429 1.646 1.353 1.81 1.865.16.5.323 1.487-.375 2.492l-134.505 193.696c-2.363 3.402-1.52 8.076 1.882 10.438 1.304.906 2.795 1.34 4.271 1.34 2.375 0 4.71-1.125 6.167-3.223l134.507-193.695c3.191-4.597 4.044-10.288 2.341-15.617zm-382.313-95.009c-1.784-14.786 3.958-30.089 15.926-41.751.693-.675 1.674-.959 2.617-.758 14.002 2.97 25.801 10.76 32.862 21.563l-15.687 15.687-1.569-5.417c-1.153-3.979-5.312-6.271-9.291-5.117-3.979 1.152-6.27 5.312-5.117 9.291l1.755 6.058c-3.073-.414-6.199-.635-9.37-.635-4.138-.001-8.185.383-12.126 1.079zm343.335 74.277c-8.516-2.633-17.079-5.09-25.686-7.372l2.481-20.811c.49-4.113-2.446-7.845-6.56-8.335-4.106-.489-7.844 2.447-8.335 6.56l-2.251 18.879c-33.332-8.023-67.239-13.432-101.38-16.199 1.087-4.078 2.54-8.101 4.351-12.007.626-1.348 1.856-2.295 3.3-2.537 20.553-3.477 40.347 1.78 54.304 14.423 1.717 1.556 4.056 2.232 6.339 1.827 2.281-.402 4.249-1.837 5.33-3.887 7.313-13.863 20.228-24.742 36.373-30.636 1.358-.498 2.887-.283 4.094.577 20.094 14.3 30.624 37.489 27.64 59.518zm-115.212-105.204c27.089 0 52.001 13.786 66.455 36.361-11.364 6.151-20.933 14.605-27.96 24.729-12.333-8.649-27.254-13.37-43.068-13.727l-36.091-36.091c12.246-7.391 26.18-11.272 40.664-11.272zm-115.723 76.715c10.509-10.14 23.56-17.984 38.378-22.959 1.177-.396 2.503-.215 3.529.472 9.224 6.212 17.377 13.782 23.992 22.225-21.935-1.003-43.93-.921-65.899.262z"/><path d="m233.015 421.397c1.305.905 2.795 1.34 4.271 1.34 2.375 0 4.71-1.125 6.167-3.223l157.109-226.259c2.362-3.402 1.52-8.076-1.883-10.438-3.404-2.362-8.076-1.519-10.438 1.883l-157.109 226.258c-2.362 3.403-1.52 8.076 1.883 10.439z"/><path d="m189.966 359.407c1.304.905 2.795 1.34 4.271 1.34 2.375 0 4.71-1.125 6.167-3.223l122.909-176.999c2.363-3.402 1.52-8.076-1.882-10.438-3.403-2.362-8.076-1.52-10.438 1.883l-122.91 176.999c-2.363 3.402-1.52 8.075 1.883 10.438z"/><path d="m146.916 297.407c1.305.906 2.795 1.34 4.271 1.34 2.375 0 4.71-1.125 6.167-3.223l81.649-117.59c2.362-3.402 1.52-8.076-1.883-10.438-3.404-2.363-8.076-1.519-10.438 1.883l-81.649 117.59c-2.362 3.402-1.52 8.076 1.883 10.438z"/><path d="m143.59 178.196c-3.403-2.362-8.075-1.519-10.438 1.884l-31.169 44.9c-2.362 3.402-1.519 8.076 1.884 10.438 1.304.905 2.794 1.339 4.27 1.339 2.375 0 4.711-1.125 6.168-3.224l31.169-44.9c2.362-3.401 1.519-8.075-1.884-10.437z"/></g></g></svg>